<?xml version="1.0" encoding="utf-8"?><!-- Uploaded to: SVG Repo, www.svgrepo.com, Generator: SVG Repo Mixer Tools -->
<svg width="800px" height="800px" viewBox="0 0 24 24" id="bookmark-alt" xmlns="http://www.w3.org/2000/svg" class="icon multi-color"><path id="secondary-fill" d="M15,3V7H7A2,2,0,0,1,5,5,2,2,0,0,1,7,3Z" style="fill: rgb(44, 169, 188); stroke-width: 2;"></path><path id="tertiary-fill" d="M12,13,9,15V7H7A2,2,0,0,1,5,5V19a2,2,0,0,0,2,2h7a1,1,0,0,0,1-1V15.25Z" style="fill: #b7b7b7; stroke-width: 2;"></path><path id="primary-stroke" d="M19,7H7A2,2,0,0,1,5,5H5A2,2,0,0,1,7,3H19ZM5,5V19a2,2,0,0,0,2,2H18a1,1,0,0,0,1-1V7M15,7H9v8l3-2,3,2Z" style="fill: none; stroke: rgb(0, 0, 0); stroke-linecap: round; stroke-linejoin: round; stroke-width: 2;"></path></svg>